<?xml version="1.0" encoding="utf-8"?>
<!-- Generator: Adobe Illustrator 25.4.1, SVG Export Plug-In . SVG Version: 6.00 Build 0)  -->
<svg version="1.1" id="Layer_1" xmlns="http://www.w3.org/2000/svg" xmlns:xlink="http://www.w3.org/1999/xlink" x="0px" y="0px"
	 viewBox="0 0 157 46.1" style="enable-background:new 0 0 157 46.1;" xml:space="preserve">
<style type="text/css">
	.st0{fill:#DA1F12;}
	.st1{fill:#FFFFFF;}
	.st2{fill:#444444;}
</style>
<rect x="0.6" class="st0" width="71.7" height="46.1"/>
<path class="st1" d="M23.8,39.4c-0.1,0.8-0.3,1.4-0.3,1.8h-3.2l0.2-1.2l0,0c-0.9,0.8-2.1,1.5-3.5,1.5c-2.5,0-4.1-1.5-4.1-4
	c0-0.9,0.2-1.9,0.4-2.7l1.3-6.1h3.3l-1.2,5.9c-0.2,0.8-0.4,1.7-0.4,2.6c0,1,0.7,1.8,1.8,1.8c2.3,0,3.1-2.1,3.5-4l1.3-6.3h3.3
	L23.8,39.4z"/>
<path class="st1" d="M29.1,24.3h3.3l-1,4.3h2.9L33.8,31h-2.9l-1.2,5.5c-0.1,0.3-0.1,0.7-0.1,1.2c0,0.8,0.5,1.2,1.2,1.2
	c0.6,0,1.2-0.1,1.6-0.3l-0.6,2.5c-0.6,0.1-1.2,0.3-1.8,0.3c-2.2,0-3.8-0.9-3.8-3.3C26.3,37.2,29.1,24.3,29.1,24.3z"/>
<path class="st1" d="M36.1,30c0.1-0.5,0.2-1,0.3-1.4h3l-0.3,1.7l0,0c0.9-1.3,2.3-2,3.8-2s3,0.9,3.2,2.4l0,0c0.8-1.6,2.7-2.4,4.4-2.4
	c1.9,0,3.5,1.5,3.5,3.4c0,1.1-0.3,2.4-0.6,3.4l-1.3,6H49l1.3-6.1c0.2-0.8,0.4-1.9,0.4-2.7c0-0.9-0.7-1.5-1.5-1.5
	c-2.3,0-2.8,2.6-3.2,4.3l-1.3,6h-3.3l1.3-6.1c0.2-0.8,0.4-1.9,0.4-2.7c0-0.9-0.7-1.5-1.5-1.5c-2.2,0-2.8,2.6-3.2,4.3l-1.3,6h-3.3
	L36.1,30z"/>
<path class="st1" d="M61,24.4l-1.2,5.5l0,0l0,0l0,0c0.8-0.9,1.9-1.6,3.4-1.6c3.1,0,4.6,2.1,4.6,5.1c0,3.9-2.2,8-6.5,8
	c-1.8,0-2.6-0.3-3.6-2.1l0,0l-0.4,1.8h-3.1l3.5-16.8L61,24.4L61,24.4z M60.8,38.9c2.7,0,3.6-3.4,3.6-5.4c0-1.5-0.8-2.7-2.3-2.7
	c-2.2,0-3.5,2.9-3.5,5.1C58.6,37.6,59.2,38.9,60.8,38.9z"/>
<g>
	<path class="st2" d="M97.6,23.2C95.2,23.4,95,23.6,95,26v11.6c0,2.4,0.2,2.6,2.6,2.7v0.8h-7.7v-0.8c2.4-0.2,2.7-0.3,2.7-2.7v-5.8
		h-9.8v5.8c0,2.4,0.2,2.6,2.6,2.7v0.8h-7.6v-0.8c2.3-0.2,2.5-0.3,2.5-2.7V26c0-2.4-0.2-2.5-2.6-2.7v-0.8h7.5v0.8
		c-2.2,0.2-2.4,0.3-2.4,2.7v4.7h9.8V26c0-2.4-0.2-2.5-2.5-2.7v-0.8h7.5V23.2L97.6,23.2z"/>
	<path class="st2" d="M108.8,38.7c-1.8,2.3-3.8,2.8-4.7,2.8c-3.5,0-5.6-2.9-5.6-6.1c0-2,0.7-3.7,1.9-5c1.2-1.3,2.7-2.1,4.2-2.1l0,0
		c2.4,0,4.3,2.1,4.3,4.4c0,0.6-0.1,0.8-0.7,0.9c-0.5,0.1-4.1,0.4-7.5,0.5c0,3.9,2.3,5.5,4.3,5.5c1.2,0,2.2-0.5,3.3-1.4L108.8,38.7z
		 M104,29.3c-1.3,0-2.6,1.2-3,3.5c1.6,0,3.2,0,4.9-0.1c0.5,0,0.7-0.2,0.7-0.6C106.5,30.7,105.6,29.3,104,29.3L104,29.3L104,29.3z"/>
	<path class="st2" d="M119.9,41.5c-0.4,0-1-0.3-1.4-0.5c-0.4-0.4-0.5-0.8-0.7-1.3c-1.2,0.8-2.5,1.8-3.4,1.8c-2,0-3.5-1.7-3.5-3.5
		c0-1.4,0.7-2.3,2.3-2.9c1.7-0.6,3.8-1.4,4.5-1.9v-0.5c0-2.1-1-3.3-2.4-3.3c-0.6,0-1,0.2-1.3,0.6c-0.4,0.4-0.6,1-0.9,1.9
		c-0.1,0.5-0.4,0.7-0.8,0.7c-0.5,0-1.3-0.6-1.3-1.2c0-0.4,0.4-0.7,0.9-1.2c0.8-0.6,2.7-1.7,4.3-2c0.9,0,1.7,0.3,2.4,0.8
		c1,0.8,1.3,2,1.3,3.5v5.4c0,1.3,0.5,1.7,1,1.7c0.3,0,0.7-0.1,1-0.3l0.3,0.8L119.9,41.5z M117.8,34.3c-0.6,0.3-2,0.9-2.6,1.2
		c-1.1,0.5-1.8,1.1-1.8,2.1c0,1.5,1.2,2.2,2,2.2c0.7,0,1.8-0.5,2.3-1L117.8,34.3L117.8,34.3L117.8,34.3z"/>
	<path class="st2" d="M122.8,41.2v-0.7c1.8-0.2,2.1-0.3,2.1-2.2V24.5c0-2-0.2-2-2-2.2v-0.7c1.5-0.2,3.3-0.7,4.3-1v17.5
		c0,1.9,0.2,2.1,2.1,2.2V41h-6.5C122.8,41.2,122.8,41.2,122.8,41.2z"/>
	<path class="st2" d="M136.2,41.1c-0.5,0.3-0.9,0.4-1.2,0.4c-1.8,0-2.8-1.2-2.8-3.4v-8.4h-2l-0.1-0.3l0.8-0.8h1.3v-2.1l1.9-1.9
		l0.4,0.1v3.9h3.3c0.3,0.3,0.2,0.9-0.2,1.1h-3.1v7.4c0,2.3,0.9,2.8,1.7,2.8s1.4-0.3,1.8-0.5l0.3,0.7L136.2,41.1z"/>
	<path class="st2" d="M147.3,41.2v-0.7c1.7-0.2,1.9-0.3,1.9-2.2v-4.8c0-2.4-0.9-3.5-2.8-3.5c-1.1,0-2.2,0.5-3,1.5v6.9
		c0,1.8,0.1,2,1.8,2.2v0.7h-6.1v-0.7c1.7-0.1,2-0.3,2-2.2V24.5c0-1.8-0.1-2-2-2.1v-0.7c1.4-0.2,3.1-0.7,4.2-1v9.7
		c1-1,2.6-2.1,4.1-2.1c2.3,0,4,1.5,4,4.9v5c0,1.9,0.2,2.1,1.9,2.2v0.7L147.3,41.2L147.3,41.2z"/>
</g>
</svg>
